<svg width="112" height="112" viewBox="0 0 112 112" fill="none" xmlns="http://www.w3.org/2000/svg">
<path d="M112 56C112 85.8234 86.9279 110 56 110C25.0721 110 0 85.8234 0 56C0 26.1766 25.0721 2 56 2C86.9279 2 112 26.1766 112 56Z" fill="#879BFF"/>
<g filter="url(#filter0_f_214_1159)">
<path d="M31 52.5C31 51.1193 32.1193 50 33.5 50H38.5C39.8807 50 41 51.1193 41 52.5C41 53.8807 39.8807 55 38.5 55H33.5C32.1193 55 31 53.8807 31 52.5Z" fill="#4E61BE"/>
</g>
<g filter="url(#filter1_f_214_1159)">
<path d="M70 52.5C70 51.1193 71.1193 50 72.5 50H77.5C78.8807 50 80 51.1193 80 52.5C80 53.8807 78.8807 55 77.5 55H72.5C71.1193 55 70 53.8807 70 52.5Z" fill="#4E61BE"/>
</g>
<path d="M40.9622 49.1453C41.5129 46.978 40.0747 46.3826 39.211 47.2463C38.6136 47.8437 37.8544 48.7999 36.8405 49.0211C35.1924 49.3807 34.1828 48.0658 33.1016 48.3017C32.1245 48.5149 32.4453 49.9802 33.1461 50.8508C33.7731 51.6297 35.3222 52.423 37.4805 51.9521C39.6389 51.4811 40.716 50.1144 40.9622 49.1453Z" fill="#3F3F3F"/>
<path d="M79.0459 51.2416C80.6249 49.6584 79.6916 48.4127 78.5081 48.715C77.6896 48.9241 76.5489 49.3594 75.564 49.0325C73.9629 48.5012 73.7652 46.8552 72.7149 46.5066C71.7658 46.1917 71.2943 47.6157 71.453 48.722C71.595 49.7118 72.5228 51.1842 74.6195 51.88C76.7162 52.5758 78.3398 51.9496 79.0459 51.2416Z" fill="#3F3F3F"/>
<path fill-rule="evenodd" clip-rule="evenodd" d="M59.5116 62.1876C59.5121 62.1917 59.5127 62.1957 59.5132 62.1998C59.5131 62.1988 59.5128 62.1974 59.5125 62.1957C59.5109 62.1856 59.507 62.163 59.5002 62.1299C59.4865 62.0631 59.4615 61.9561 59.4197 61.8224C59.3348 61.5507 59.1893 61.196 58.9513 60.8498C58.5176 60.219 57.7118 59.5 55.9998 59.5C54.2879 59.5 53.482 60.219 53.0484 60.8498C52.8104 61.196 52.6649 61.5507 52.58 61.8224C52.5382 61.9561 52.5132 62.0631 52.4995 62.1299C52.4926 62.163 52.4888 62.1856 52.4871 62.1957C52.4869 62.1973 52.4867 62.1987 52.4865 62.1996C52.3772 63.0145 51.6313 63.5906 50.8138 63.4884C49.9918 63.3857 49.4087 62.636 49.5114 61.8139L50.9998 62C49.5114 61.8139 49.5115 61.8131 49.5116 61.8123L49.5119 61.8105L49.5123 61.8067L49.5135 61.798L49.5165 61.776C49.5189 61.7593 49.522 61.7387 49.526 61.7145C49.5339 61.666 49.5451 61.6026 49.5608 61.5264C49.592 61.3744 49.6411 61.1689 49.7166 60.9276C49.866 60.4493 50.1268 59.804 50.5763 59.1502C51.5176 57.781 53.2118 56.5 55.9998 56.5C58.7879 56.5 60.482 57.781 61.4234 59.1502C61.8729 59.804 62.1336 60.4493 62.2831 60.9276C62.3585 61.1689 62.4077 61.3744 62.4389 61.5264C62.4546 61.6026 62.4658 61.666 62.4737 61.7145C62.4776 61.7387 62.4808 61.7593 62.4831 61.776L62.4862 61.798L62.4873 61.8067L62.4878 61.8105L62.4881 61.8123C62.4882 61.8131 62.4883 61.8139 60.9998 62L62.4883 61.8139C62.591 62.636 62.0079 63.3857 61.1859 63.4884C60.3685 63.5906 59.6226 63.0146 59.5132 62.1998" fill="#3F3F3F"/>
<path d="M77.7337 52C76.5052 52.7882 73.2161 58.7564 76.2491 59.8595C78.4102 60.6455 80.3664 58.1482 77.7337 52Z" fill="#92CEFF"/>
<defs>
<filter id="filter0_f_214_1159" x="24" y="43" width="24" height="19" filterUnits="userSpaceOnUse" color-interpolation-filters="sRGB">
<feFlood flood-opacity="0" result="BackgroundImageFix"/>
<feBlend mode="normal" in="SourceGraphic" in2="BackgroundImageFix" result="shape"/>
<feGaussianBlur stdDeviation="3.5" result="effect1_foregroundBlur_214_1159"/>
</filter>
<filter id="filter1_f_214_1159" x="63" y="43" width="24" height="19" filterUnits="userSpaceOnUse" color-interpolation-filters="sRGB">
<feFlood flood-opacity="0" result="BackgroundImageFix"/>
<feBlend mode="normal" in="SourceGraphic" in2="BackgroundImageFix" result="shape"/>
<feGaussianBlur stdDeviation="3.5" result="effect1_foregroundBlur_214_1159"/>
</filter>
</defs>
</svg>
