<svg width="112" height="112" viewBox="0 0 112 112" fill="none" xmlns="http://www.w3.org/2000/svg">
<path d="M112 56C112 85.8234 86.9279 110 56 110C25.0721 110 0 85.8234 0 56C0 26.1766 25.0721 2 56 2C86.9279 2 112 26.1766 112 56Z" fill="#96C0FF"/>
<g filter="url(#filter0_f_214_1160)">
<path d="M31 52.5C31 51.1193 32.1193 50 33.5 50H38.5C39.8807 50 41 51.1193 41 52.5C41 53.8807 39.8807 55 38.5 55H33.5C32.1193 55 31 53.8807 31 52.5Z" fill="#5685CC"/>
</g>
<g filter="url(#filter1_f_214_1160)">
<path d="M70 52.5C70 51.1193 71.1193 50 72.5 50H77.5C78.8807 50 80 51.1193 80 52.5C80 53.8807 78.8807 55 77.5 55H72.5C71.1193 55 70 53.8807 70 52.5Z" fill="#5685CC"/>
</g>
<path d="M40.9271 48.5552C40.6799 46.3599 39.0916 48.2587 36.8963 48.5059C34.701 48.7531 32.7302 47.2551 32.9774 49.4504C33.0893 50.444 34.9808 51.2373 37.176 50.9901C39.3713 50.7429 41.039 49.5488 40.9271 48.5552Z" fill="#3F3F3F"/>
<path d="M79.0244 49.4695C79.282 47.2754 77.304 48.764 75.11 48.5064C72.9159 48.2487 71.3366 46.3424 71.079 48.5364C70.9623 49.5295 72.6243 50.7316 74.8184 50.9892C77.0125 51.2469 78.9077 50.4626 79.0244 49.4695Z" fill="#3F3F3F"/>
<path fill-rule="evenodd" clip-rule="evenodd" d="M59.5421 60.8543C59.7306 61.6323 60.5018 62.1293 61.2939 61.9709C62.1062 61.8084 62.633 61.0182 62.4706 60.2058L60.9997 60.5C62.4706 60.2058 62.4703 60.2046 62.4701 60.2033L62.4696 60.2007L62.4685 60.1954L62.466 60.1839L62.4603 60.158C62.456 60.1393 62.4509 60.1181 62.4447 60.0945C62.4324 60.0472 62.4161 59.99 62.3945 59.9243C62.3514 59.7932 62.2872 59.6272 62.1929 59.4386C62.0034 59.0596 61.6934 58.5921 61.1962 58.1401C60.1769 57.2135 58.5401 56.5 55.9997 56.5C53.4593 56.5 51.8225 57.2135 50.8032 58.1401C50.306 58.5921 49.996 59.0596 49.8065 59.4386C49.7122 59.6272 49.648 59.7932 49.6049 59.9243C49.5834 59.99 49.567 60.0472 49.5547 60.0945C49.5485 60.1181 49.5434 60.1393 49.5391 60.158L49.5334 60.1839L49.531 60.1954L49.5299 60.2007L49.5293 60.2033C49.5291 60.2046 49.5288 60.2058 50.9997 60.5L49.5288 60.2058C49.3664 61.0182 49.8932 61.8084 50.7055 61.9709C51.4977 62.1293 52.2688 61.6323 52.4573 60.8543C52.4616 60.8423 52.4717 60.8164 52.4898 60.7802C52.5347 60.6904 52.6309 60.5329 52.8212 60.3599C53.1769 60.0365 54.0401 59.5 55.9997 59.5C57.9593 59.5 58.8225 60.0365 59.1782 60.3599C59.3685 60.5329 59.4647 60.6904 59.5096 60.7802C59.5277 60.8164 59.5378 60.8423 59.5421 60.8543Z" fill="#3F3F3F"/>
<defs>
<filter id="filter0_f_214_1160" x="24" y="43" width="24" height="19" filterUnits="userSpaceOnUse" color-interpolation-filters="sRGB">
<feFlood flood-opacity="0" result="BackgroundImageFix"/>
<feBlend mode="normal" in="SourceGraphic" in2="BackgroundImageFix" result="shape"/>
<feGaussianBlur stdDeviation="3.5" result="effect1_foregroundBlur_214_1160"/>
</filter>
<filter id="filter1_f_214_1160" x="63" y="43" width="24" height="19" filterUnits="userSpaceOnUse" color-interpolation-filters="sRGB">
<feFlood flood-opacity="0" result="BackgroundImageFix"/>
<feBlend mode="normal" in="SourceGraphic" in2="BackgroundImageFix" result="shape"/>
<feGaussianBlur stdDeviation="3.5" result="effect1_foregroundBlur_214_1160"/>
</filter>
</defs>
</svg>
