<svg width="112" height="112" viewBox="0 0 112 112" fill="none" xmlns="http://www.w3.org/2000/svg">
<path d="M112 56C112 85.8234 86.9279 110 56 110C25.0721 110 0 85.8234 0 56C0 26.1766 25.0721 2 56 2C86.9279 2 112 26.1766 112 56Z" fill="#B8DAFB"/>
<g filter="url(#filter0_f_214_1161)">
<path d="M29 54.5C29 53.1193 30.1193 52 31.5 52H36.5C37.8807 52 39 53.1193 39 54.5C39 55.8807 37.8807 57 36.5 57H31.5C30.1193 57 29 55.8807 29 54.5Z" fill="#80AEDA"/>
</g>
<g filter="url(#filter1_f_214_1161)">
<path d="M72 54.5C72 53.1193 73.1193 52 74.5 52H79.5C80.8807 52 82 53.1193 82 54.5C82 55.8807 80.8807 57 79.5 57H74.5C73.1193 57 72 55.8807 72 54.5Z" fill="#80AEDA"/>
</g>
<path d="M41 49C41 46.7909 39.2091 47 37 47C34.7909 47 33 46.7909 33 49C33 51.2091 34.7909 51.5 37 51.5C39.2091 51.5 41 51.2091 41 49Z" fill="#3F3F3F"/>
<path d="M79 49C79 46.7909 77.2091 47 75 47C72.7909 47 71 46.7909 71 49C71 51.2091 72.7909 51.5 75 51.5C77.2091 51.5 79 51.2091 79 49Z" fill="#3F3F3F"/>
<path fill-rule="evenodd" clip-rule="evenodd" d="M60.191 60.2632C60.8778 60.7034 61.7935 60.5136 62.2479 59.8321C62.7074 59.1428 62.5212 58.2115 61.8319 57.7519L60.9998 59C61.8319 57.7519 61.8312 57.7515 61.8306 57.751L61.8292 57.7501L61.8264 57.7482L61.8202 57.7442L61.8062 57.7352C61.7961 57.7287 61.7845 57.7213 61.7712 57.7131C61.7447 57.6967 61.712 57.6771 61.6728 57.6547C61.5944 57.6099 61.4904 57.5541 61.3599 57.4915C61.0987 57.3661 60.7323 57.2137 60.2535 57.0663C59.2939 56.7711 57.8949 56.5 55.9998 56.5C54.1047 56.5 52.7058 56.7711 51.7462 57.0663C51.2673 57.2137 50.901 57.3661 50.6398 57.4915C50.5093 57.5541 50.4053 57.6099 50.3269 57.6547C50.2877 57.6771 50.2549 57.6967 50.2285 57.7131C50.2152 57.7213 50.2036 57.7287 50.1934 57.7352L50.1795 57.7442L50.1733 57.7482L50.1705 57.7501L50.1691 57.751C50.1685 57.7515 50.1678 57.7519 50.9998 59L50.1678 57.7519C49.4785 58.2115 49.2922 59.1428 49.7518 59.8321C50.2062 60.5136 51.1218 60.7034 51.8087 60.2632C51.8103 60.2623 51.8125 60.261 51.8153 60.2594C51.8326 60.2495 51.8732 60.2271 51.938 60.196C52.0674 60.1339 52.2948 60.0363 52.6285 59.9337C53.2939 59.7289 54.3949 59.5 55.9998 59.5C57.6047 59.5 58.7058 59.7289 59.3712 59.9337C59.7048 60.0363 59.9323 60.1339 60.0617 60.196C60.1265 60.2271 60.167 60.2495 60.1843 60.2594C60.1872 60.261 60.1894 60.2623 60.191 60.2632Z" fill="#3F3F3F"/>
<defs>
<filter id="filter0_f_214_1161" x="22" y="45" width="24" height="19" filterUnits="userSpaceOnUse" color-interpolation-filters="sRGB">
<feFlood flood-opacity="0" result="BackgroundImageFix"/>
<feBlend mode="normal" in="SourceGraphic" in2="BackgroundImageFix" result="shape"/>
<feGaussianBlur stdDeviation="3.5" result="effect1_foregroundBlur_214_1161"/>
</filter>
<filter id="filter1_f_214_1161" x="65" y="45" width="24" height="19" filterUnits="userSpaceOnUse" color-interpolation-filters="sRGB">
<feFlood flood-opacity="0" result="BackgroundImageFix"/>
<feBlend mode="normal" in="SourceGraphic" in2="BackgroundImageFix" result="shape"/>
<feGaussianBlur stdDeviation="3.5" result="effect1_foregroundBlur_214_1161"/>
</filter>
</defs>
</svg>
