<svg width="112" height="112" viewBox="0 0 112 112" fill="none" xmlns="http://www.w3.org/2000/svg">
<path d="M112 56C112 85.8234 86.9279 110 56 110C25.0721 110 0 85.8234 0 56C0 26.1766 25.0721 2 56 2C86.9279 2 112 26.1766 112 56Z" fill="#BFEEF6"/>
<g filter="url(#filter0_f_214_1162)">
<path d="M26 56.5C26 55.1193 27.1193 54 28.5 54H33.5C34.8807 54 36 55.1193 36 56.5C36 57.8807 34.8807 59 33.5 59H28.5C27.1193 59 26 57.8807 26 56.5Z" fill="#92D1DC"/>
</g>
<g filter="url(#filter1_f_214_1162)">
<path d="M76 56.5C76 55.1193 77.1193 54 78.5 54H83.5C84.8807 54 86 55.1193 86 56.5C86 57.8807 84.8807 59 83.5 59H78.5C77.1193 59 76 57.8807 76 56.5Z" fill="#92D1DC"/>
</g>
<path d="M41 49C41 46.7909 39.2091 46.5 37 46.5C34.7909 46.5 33 46.7909 33 49C33 51.2091 34.7909 53 37 53C39.2091 53 41 51.2091 41 49Z" fill="#3F3F3F"/>
<path d="M79 49C79 46.7909 77.2091 46.5 75 46.5C72.7909 46.5 71 46.7909 71 49C71 51.2091 72.7909 53 75 53C77.2091 53 79 51.2091 79 49Z" fill="#3F3F3F"/>
<path fill-rule="evenodd" clip-rule="evenodd" d="M62.5 58C62.5 57.1716 61.8284 56.5 61 56.5H56C54.1049 56.5 52.706 56.7711 51.7464 57.0663C51.2675 57.2137 50.9012 57.3661 50.64 57.4915C50.5095 57.5541 50.4055 57.6099 50.3271 57.6547C50.2879 57.6771 50.2551 57.6967 50.2286 57.7131C50.2154 57.7213 50.2037 57.7287 50.1936 57.7352L50.1796 57.7442L50.1735 57.7482L50.1706 57.7501L50.1693 57.751C50.1686 57.7515 50.1679 57.7519 51 59L50.1679 57.7519C49.4787 58.2115 49.2924 59.1428 49.7519 59.8321C50.2063 60.5136 51.122 60.7034 51.8089 60.2632C51.8104 60.2623 51.8127 60.261 51.8155 60.2594C51.8328 60.2495 51.8734 60.2271 51.9382 60.196C52.0676 60.1339 52.295 60.0363 52.6286 59.9337C53.294 59.7289 54.3951 59.5 56 59.5H61C61.8284 59.5 62.5 58.8284 62.5 58Z" fill="#3F3F3F"/>
<defs>
<filter id="filter0_f_214_1162" x="19" y="47" width="24" height="19" filterUnits="userSpaceOnUse" color-interpolation-filters="sRGB">
<feFlood flood-opacity="0" result="BackgroundImageFix"/>
<feBlend mode="normal" in="SourceGraphic" in2="BackgroundImageFix" result="shape"/>
<feGaussianBlur stdDeviation="3.5" result="effect1_foregroundBlur_214_1162"/>
</filter>
<filter id="filter1_f_214_1162" x="69" y="47" width="24" height="19" filterUnits="userSpaceOnUse" color-interpolation-filters="sRGB">
<feFlood flood-opacity="0" result="BackgroundImageFix"/>
<feBlend mode="normal" in="SourceGraphic" in2="BackgroundImageFix" result="shape"/>
<feGaussianBlur stdDeviation="3.5" result="effect1_foregroundBlur_214_1162"/>
</filter>
</defs>
</svg>
