<svg width="112" height="112" viewBox="0 0 112 112" fill="none" xmlns="http://www.w3.org/2000/svg">
<path d="M112 56C112 85.8234 86.9279 110 56 110C25.0721 110 0 85.8234 0 56C0 26.1766 25.0721 2 56 2C86.9279 2 112 26.1766 112 56Z" fill="#CFF0D7"/>
<path d="M41 49C41 46.7909 39.2091 45.5 37 45.5C34.7909 45.5 33 46.7909 33 49C33 51.2091 34.7909 53 37 53C39.2091 53 41 51.2091 41 49Z" fill="#3F3F3F"/>
<path d="M79 49C79 46.7909 77.2091 45.5 75 45.5C72.7909 45.5 71 46.7909 71 49C71 51.2091 72.7909 53 75 53C77.2091 53 79 51.2091 79 49Z" fill="#3F3F3F"/>
<path fill-rule="evenodd" clip-rule="evenodd" d="M62 59C62 58.1716 61.3284 57.5 60.5 57.5H51C50.1716 57.5 49.5 58.1716 49.5 59C49.5 59.8284 50.1716 60.5 51 60.5H60.5C61.3284 60.5 62 59.8284 62 59Z" fill="#3F3F3F"/>
<g filter="url(#filter0_f_214_1163)">
<path d="M22 56.5C22 55.1193 23.1193 54 24.5 54H29.5C30.8807 54 32 55.1193 32 56.5C32 57.8807 30.8807 59 29.5 59H24.5C23.1193 59 22 57.8807 22 56.5Z" fill="#94E1A8"/>
</g>
<g filter="url(#filter1_f_214_1163)">
<path d="M80 56.5C80 55.1193 81.1193 54 82.5 54H87.5C88.8807 54 90 55.1193 90 56.5C90 57.8807 88.8807 59 87.5 59H82.5C81.1193 59 80 57.8807 80 56.5Z" fill="#94E1A8"/>
</g>
<defs>
<filter id="filter0_f_214_1163" x="15" y="47" width="24" height="19" filterUnits="userSpaceOnUse" color-interpolation-filters="sRGB">
<feFlood flood-opacity="0" result="BackgroundImageFix"/>
<feBlend mode="normal" in="SourceGraphic" in2="BackgroundImageFix" result="shape"/>
<feGaussianBlur stdDeviation="3.5" result="effect1_foregroundBlur_214_1163"/>
</filter>
<filter id="filter1_f_214_1163" x="73" y="47" width="24" height="19" filterUnits="userSpaceOnUse" color-interpolation-filters="sRGB">
<feFlood flood-opacity="0" result="BackgroundImageFix"/>
<feBlend mode="normal" in="SourceGraphic" in2="BackgroundImageFix" result="shape"/>
<feGaussianBlur stdDeviation="3.5" result="effect1_foregroundBlur_214_1163"/>
</filter>
</defs>
</svg>
