<svg width="112" height="112" viewBox="0 0 112 112" fill="none" xmlns="http://www.w3.org/2000/svg">
<path d="M112 56C112 85.8234 86.9279 110 56 110C25.0721 110 0 85.8234 0 56C0 26.1766 25.0721 2 56 2C86.9279 2 112 26.1766 112 56Z" fill="#FFF09F"/>
<path d="M41 50C41 52.2091 39.2091 53 37 53C34.7909 53 33 52.2091 33 50C33 47.7909 34.7909 46 37 46C39.2091 46 41 47.7909 41 50Z" fill="#3F3F3F"/>
<path d="M79 50C79 52.2091 77.2091 53 75 53C72.7909 53 71 52.2091 71 50C71 47.7909 72.7909 46 75 46C77.2091 46 79 47.7909 79 50Z" fill="#3F3F3F"/>
<g filter="url(#filter0_f_214_1164)">
<path d="M22 56.5C22 55.1193 23.1193 54 24.5 54H29.5C30.8807 54 32 55.1193 32 56.5C32 57.8807 30.8807 59 29.5 59H24.5C23.1193 59 22 57.8807 22 56.5Z" fill="#FFC853"/>
</g>
<g filter="url(#filter1_f_214_1164)">
<path d="M80 56.5C80 55.1193 81.1193 54 82.5 54H87.5C88.8807 54 90 55.1193 90 56.5C90 57.8807 88.8807 59 87.5 59H82.5C81.1193 59 80 57.8807 80 56.5Z" fill="#FFC853"/>
</g>
<path fill-rule="evenodd" clip-rule="evenodd" d="M61.9996 58L62.4739 59.423C63.2598 59.1611 63.6846 58.3116 63.4226 57.5257C63.1628 56.7461 62.3248 56.3219 61.5442 56.5708C61.5442 56.5708 61.5442 56.5708 61.5442 56.5708C61.5415 56.5716 61.5365 56.573 61.5293 56.575C61.5043 56.5819 61.452 56.5955 61.3695 56.6138C61.2043 56.6506 60.9188 56.7058 60.4888 56.7632C59.628 56.8779 58.1953 57 55.9996 57C53.8039 57 52.3712 56.8779 51.5103 56.7632C51.0803 56.7058 50.7949 56.6506 50.6297 56.6138C50.5472 56.5955 50.4949 56.5819 50.4699 56.575C50.4627 56.573 50.4577 56.5716 50.455 56.5708C50.455 56.5708 50.455 56.5708 50.455 56.5708C49.6744 56.3219 48.8364 56.7461 48.5766 57.5257C48.3146 58.3116 48.7393 59.1611 49.5253 59.423L49.9965 58.0092C49.5253 59.423 49.5259 59.4232 49.5265 59.4234L49.5278 59.4239L49.5305 59.4248L49.5363 59.4267L49.5495 59.4309L49.5825 59.4412C49.6075 59.4487 49.6384 59.4577 49.6758 59.468C49.7504 59.4885 49.8505 59.5139 49.9789 59.5424C50.2356 59.5994 50.6063 59.6692 51.1138 59.7368C52.128 59.8721 53.6953 60 55.9996 60C58.3039 60 59.8712 59.8721 60.8853 59.7368C61.3928 59.6692 61.7636 59.5994 62.0203 59.5424C62.1487 59.5139 62.2488 59.4885 62.3234 59.468C62.3607 59.4577 62.3917 59.4487 62.4167 59.4412L62.4497 59.4309L62.4629 59.4267L62.4687 59.4248L62.4714 59.4239L62.4727 59.4234C62.4733 59.4232 62.4739 59.423 61.9996 58Z" fill="#3F3F3F"/>
<defs>
<filter id="filter0_f_214_1164" x="15" y="47" width="24" height="19" filterUnits="userSpaceOnUse" color-interpolation-filters="sRGB">
<feFlood flood-opacity="0" result="BackgroundImageFix"/>
<feBlend mode="normal" in="SourceGraphic" in2="BackgroundImageFix" result="shape"/>
<feGaussianBlur stdDeviation="3.5" result="effect1_foregroundBlur_214_1164"/>
</filter>
<filter id="filter1_f_214_1164" x="73" y="47" width="24" height="19" filterUnits="userSpaceOnUse" color-interpolation-filters="sRGB">
<feFlood flood-opacity="0" result="BackgroundImageFix"/>
<feBlend mode="normal" in="SourceGraphic" in2="BackgroundImageFix" result="shape"/>
<feGaussianBlur stdDeviation="3.5" result="effect1_foregroundBlur_214_1164"/>
</filter>
</defs>
</svg>
