<svg width="112" height="112" viewBox="0 0 112 112" fill="none" xmlns="http://www.w3.org/2000/svg">
<path d="M112 56C112 85.8234 86.9279 110 56 110C25.0721 110 0 85.8234 0 56C0 26.1766 25.0721 2 56 2C86.9279 2 112 26.1766 112 56Z" fill="#FFEB7C"/>
<path fill-rule="evenodd" clip-rule="evenodd" d="M61.2043 56.7283C61.8896 56.2991 62.7965 56.4908 63.2479 57.1679C63.7074 57.8572 63.5212 58.7885 62.8319 59.2481L61.9998 58C62.8319 59.2481 62.831 59.2486 62.8302 59.2492L62.8284 59.2504L62.8249 59.2527L62.8172 59.2577L62.8003 59.2686C62.7882 59.2763 62.7746 59.2848 62.7593 59.294C62.7289 59.3125 62.692 59.3339 62.6485 59.3578C62.5613 59.4057 62.4476 59.4633 62.3044 59.527C62.0178 59.6543 61.6149 59.8051 61.0738 59.9494C59.9921 60.2378 58.3601 60.5 55.9998 60.5C53.6396 60.5 52.0076 60.2378 50.9258 59.9494C50.3847 59.8051 49.9819 59.6543 49.6953 59.527C49.5521 59.4633 49.4383 59.4057 49.3512 59.3578C49.3076 59.3339 49.2708 59.3125 49.2403 59.294C49.2251 59.2848 49.2115 59.2763 49.1994 59.2686L49.1824 59.2577L49.1748 59.2527L49.1712 59.2504L49.1695 59.2492C49.1686 59.2486 49.1678 59.2481 49.9998 58L49.1678 59.2481C48.4785 58.7885 48.2922 57.8572 48.7518 57.1679C49.2032 56.4908 50.11 56.2991 50.7954 56.7283C50.8082 56.7354 50.8467 56.7557 50.9137 56.7855C51.0491 56.8457 51.3024 56.9449 51.6988 57.0506C52.4921 57.2622 53.8601 57.5 55.9998 57.5C58.1396 57.5 59.5076 57.2622 60.3008 57.0506C60.6972 56.9449 60.9506 56.8457 61.0859 56.7855C61.153 56.7557 61.1914 56.7354 61.2043 56.7283ZM50.8301 56.7507C50.8301 56.7508 50.8302 56.7508 50.8302 56.7508C50.8302 56.7508 50.8302 56.7508 50.8302 56.7508L50.8301 56.7507Z" fill="#3F3F3F"/>
<path d="M41 50C41 52.2091 39.2091 53.5 37 53.5C34.7909 53.5 33 52.2091 33 50C33 47.7909 34.7909 46 37 46C39.2091 46 41 47.7909 41 50Z" fill="#3F3F3F"/>
<path d="M79 50C79 52.2091 77.2091 53.5 75 53.5C72.7909 53.5 71 52.2091 71 50C71 47.7909 72.7909 46 75 46C77.2091 46 79 47.7909 79 50Z" fill="#3F3F3F"/>
<g filter="url(#filter0_f_214_1165)">
<path d="M21 56.5C21 55.1193 22.1193 54 23.5 54H28.5C29.8807 54 31 55.1193 31 56.5C31 57.8807 29.8807 59 28.5 59H23.5C22.1193 59 21 57.8807 21 56.5Z" fill="#FFBD53"/>
</g>
<g filter="url(#filter1_f_214_1165)">
<path d="M79 56.5C79 55.1193 80.1193 54 81.5 54H86.5C87.8807 54 89 55.1193 89 56.5C89 57.8807 87.8807 59 86.5 59H81.5C80.1193 59 79 57.8807 79 56.5Z" fill="#FFBD53"/>
</g>
<defs>
<filter id="filter0_f_214_1165" x="14" y="47" width="24" height="19" filterUnits="userSpaceOnUse" color-interpolation-filters="sRGB">
<feFlood flood-opacity="0" result="BackgroundImageFix"/>
<feBlend mode="normal" in="SourceGraphic" in2="BackgroundImageFix" result="shape"/>
<feGaussianBlur stdDeviation="3.5" result="effect1_foregroundBlur_214_1165"/>
</filter>
<filter id="filter1_f_214_1165" x="72" y="47" width="24" height="19" filterUnits="userSpaceOnUse" color-interpolation-filters="sRGB">
<feFlood flood-opacity="0" result="BackgroundImageFix"/>
<feBlend mode="normal" in="SourceGraphic" in2="BackgroundImageFix" result="shape"/>
<feGaussianBlur stdDeviation="3.5" result="effect1_foregroundBlur_214_1165"/>
</filter>
</defs>
</svg>
