<svg width="112" height="112" viewBox="0 0 112 112" fill="none" xmlns="http://www.w3.org/2000/svg">
<path d="M112 56C112 85.8234 86.9279 110 56 110C25.0721 110 0 85.8234 0 56C0 26.1766 25.0721 2 56 2C86.9279 2 112 26.1766 112 56Z" fill="#FFD57A"/>
<path d="M41 50C41 52.2091 39.2091 53 37 53C34.7909 53 33 52.2091 33 50C33 47.7909 33.5 45.5 37 45.5C40 45.5 41 47.7909 41 50Z" fill="#3F3F3F"/>
<path d="M71 50C71 52.2091 72.7909 53 75 53C77.2091 53 79 52.2091 79 50C79 47.7909 78.5 45.5 75 45.5C72 45.5 71 47.7909 71 50Z" fill="#3F3F3F"/>
<path fill-rule="evenodd" clip-rule="evenodd" d="M60.7877 57.116C61.2288 56.5096 62.0639 56.3159 62.7339 56.6919C63.4563 57.0974 63.7133 58.0117 63.3078 58.7342L61.9997 58C63.3078 58.7342 63.3068 58.7358 63.3059 58.7375L63.304 58.7409L63.3 58.7478L63.2918 58.7619C63.2862 58.7715 63.2802 58.7814 63.2739 58.7917C63.2612 58.8122 63.2472 58.8339 63.2318 58.8568C63.2008 58.9026 63.1641 58.9528 63.1209 59.0064C63.0341 59.1139 62.9223 59.2337 62.7795 59.3596C62.493 59.6122 62.0921 59.8801 61.5364 60.1237C60.4335 60.6073 58.7122 61 55.9997 61C53.2873 61 51.5659 60.6073 50.4631 60.1237C49.9074 59.8801 49.5065 59.6122 49.22 59.3596C49.0772 59.2337 48.9654 59.1139 48.8786 59.0064C48.8353 58.9528 48.7986 58.9026 48.7677 58.8568C48.7522 58.8339 48.7382 58.8122 48.7256 58.7917C48.7193 58.7814 48.7133 58.7715 48.7076 58.7619L48.6994 58.7478L48.6955 58.7409L48.6936 58.7375C48.6926 58.7358 48.6917 58.7342 49.9914 58.0047L48.6917 58.7342C48.2862 58.0117 48.5432 57.0974 49.2656 56.6919C49.9356 56.3159 50.7707 56.5096 51.2118 57.116C51.2549 57.1524 51.3886 57.2538 51.6678 57.3763C52.2754 57.6427 53.5541 58 55.9997 58C58.4454 58 59.724 57.6427 60.3317 57.3763C60.6109 57.2538 60.7445 57.1524 60.7877 57.116ZM51.3059 57.2624C51.3059 57.2625 51.3059 57.2625 51.3059 57.2625C51.3059 57.2625 51.3059 57.2625 51.3059 57.2625L51.3059 57.2624Z" fill="#3F3F3F"/>
<g filter="url(#filter0_f_214_1166)">
<path d="M21 56.5C21 55.1193 22.1193 54 23.5 54H28.5C29.8807 54 31 55.1193 31 56.5C31 57.8807 29.8807 59 28.5 59H23.5C22.1193 59 21 57.8807 21 56.5Z" fill="#FF816B"/>
</g>
<g filter="url(#filter1_f_214_1166)">
<path d="M79 56.5C79 55.1193 80.1193 54 81.5 54H86.5C87.8807 54 89 55.1193 89 56.5C89 57.8807 87.8807 59 86.5 59H81.5C80.1193 59 79 57.8807 79 56.5Z" fill="#FF816B"/>
</g>
<defs>
<filter id="filter0_f_214_1166" x="14" y="47" width="24" height="19" filterUnits="userSpaceOnUse" color-interpolation-filters="sRGB">
<feFlood flood-opacity="0" result="BackgroundImageFix"/>
<feBlend mode="normal" in="SourceGraphic" in2="BackgroundImageFix" result="shape"/>
<feGaussianBlur stdDeviation="3.5" result="effect1_foregroundBlur_214_1166"/>
</filter>
<filter id="filter1_f_214_1166" x="72" y="47" width="24" height="19" filterUnits="userSpaceOnUse" color-interpolation-filters="sRGB">
<feFlood flood-opacity="0" result="BackgroundImageFix"/>
<feBlend mode="normal" in="SourceGraphic" in2="BackgroundImageFix" result="shape"/>
<feGaussianBlur stdDeviation="3.5" result="effect1_foregroundBlur_214_1166"/>
</filter>
</defs>
</svg>
