<svg width="112" height="112" viewBox="0 0 112 112" fill="none" xmlns="http://www.w3.org/2000/svg">
<path d="M112 56C112 85.8234 86.9279 110 56 110C25.0721 110 0 85.8234 0 56C0 26.1766 25.0721 2 56 2C86.9279 2 112 26.1766 112 56Z" fill="#FFA97A"/>
<path d="M41 50C41 52.2091 39.2091 52 37 52C34.7909 52 33 52.2091 33 50C33 47.7909 33.5 45.5 37 45.5C40 45.5 41 47.7909 41 50Z" fill="#3F3F3F"/>
<path d="M71 50C71 52.2091 72.7909 52 75 52C77.2091 52 79 52.2091 79 50C79 47.7909 78.5 45.5 75 45.5C72 45.5 71 47.7909 71 50Z" fill="#3F3F3F"/>
<path fill-rule="evenodd" clip-rule="evenodd" d="M60.6641 57.317C61.0178 56.6235 61.8526 56.3106 62.5816 56.6175C63.3451 56.9389 63.7035 57.8184 63.3821 58.582L61.9996 58C63.3821 58.582 63.3815 58.5834 63.3809 58.5849L63.3796 58.588L63.3769 58.5942L63.3712 58.6072L63.3585 58.6355C63.3493 58.6553 63.3388 58.6771 63.3268 58.7007C63.3029 58.7479 63.2732 58.8022 63.2367 58.8625C63.1635 58.9834 63.0638 59.1272 62.9299 59.2845C62.6604 59.6014 62.2634 59.9603 61.691 60.2949C60.5467 60.9639 58.7664 61.5 55.9996 61.5C53.2328 61.5 51.4525 60.9639 50.3083 60.2949C49.7358 59.9603 49.3389 59.6014 49.0693 59.2845C48.9355 59.1272 48.8357 58.9834 48.7626 58.8625C48.7261 58.8022 48.6963 58.7479 48.6724 58.7007C48.6604 58.6771 48.6499 58.6553 48.6408 58.6355L48.628 58.6072L48.6223 58.5942L48.6197 58.588L48.6184 58.5849C48.6177 58.5834 48.6171 58.582 49.9996 58L48.6171 58.582C48.2957 57.8184 48.6541 56.9389 49.4176 56.6175C50.1467 56.3106 50.9814 56.6235 51.3351 57.317C51.3396 57.3228 51.3459 57.3307 51.3542 57.3405C51.4037 57.3986 51.5396 57.5397 51.8224 57.7051C52.3886 58.0361 53.6083 58.5 55.9996 58.5C58.3909 58.5 59.6106 58.0361 60.1768 57.7051C60.4596 57.5397 60.5955 57.3986 60.645 57.3405C60.6533 57.3307 60.6596 57.3228 60.6641 57.317Z" fill="#3F3F3F"/>
<g filter="url(#filter0_f_214_1167)">
<path d="M19 55.5C19 53.567 20.567 52 22.5 52H27.5C29.433 52 31 53.567 31 55.5C31 57.433 29.433 59 27.5 59H22.5C20.567 59 19 57.433 19 55.5Z" fill="#FF6B6E"/>
</g>
<g filter="url(#filter1_f_214_1167)">
<path d="M79 55.5C79 53.567 80.567 52 82.5 52H87.5C89.433 52 91 53.567 91 55.5C91 57.433 89.433 59 87.5 59H82.5C80.567 59 79 57.433 79 55.5Z" fill="#FF6B6E"/>
</g>
<defs>
<filter id="filter0_f_214_1167" x="12" y="45" width="26" height="21" filterUnits="userSpaceOnUse" color-interpolation-filters="sRGB">
<feFlood flood-opacity="0" result="BackgroundImageFix"/>
<feBlend mode="normal" in="SourceGraphic" in2="BackgroundImageFix" result="shape"/>
<feGaussianBlur stdDeviation="3.5" result="effect1_foregroundBlur_214_1167"/>
</filter>
<filter id="filter1_f_214_1167" x="72" y="45" width="26" height="21" filterUnits="userSpaceOnUse" color-interpolation-filters="sRGB">
<feFlood flood-opacity="0" result="BackgroundImageFix"/>
<feBlend mode="normal" in="SourceGraphic" in2="BackgroundImageFix" result="shape"/>
<feGaussianBlur stdDeviation="3.5" result="effect1_foregroundBlur_214_1167"/>
</filter>
</defs>
</svg>
