<svg width="112" height="112" viewBox="0 0 112 112" fill="none" xmlns="http://www.w3.org/2000/svg">
<path d="M112 56C112 85.8234 86.9279 110 56 110C25.0721 110 0 85.8234 0 56C0 26.1766 25.0721 2 56 2C86.9279 2 112 26.1766 112 56Z" fill="#FF786B"/>
<path fill-rule="evenodd" clip-rule="evenodd" d="M60.5665 55.5569C60.8056 54.7825 61.62 54.3355 62.4049 54.5558C63.2025 54.7796 63.6677 55.6077 63.4438 56.4053L61.9996 56C63.4438 56.4053 63.4435 56.4064 63.4432 56.4076L63.4425 56.4099L63.4411 56.4149L63.438 56.4256L63.4304 56.4506C63.4248 56.4688 63.4181 56.4899 63.41 56.5139C63.3938 56.5619 63.3723 56.6211 63.3444 56.6901C63.2888 56.8279 63.2076 57.0054 63.0922 57.2088C62.8611 57.6163 62.4927 58.1281 61.9229 58.6278C60.7574 59.6499 58.8906 60.5 55.9996 60.5C53.1086 60.5 51.2418 59.6499 50.0763 58.6278C49.5065 58.1281 49.1382 57.6163 48.907 57.2088C48.7917 57.0054 48.7104 56.8279 48.6548 56.6901C48.627 56.6211 48.6055 56.5619 48.5893 56.5139C48.5812 56.4899 48.5744 56.4688 48.5688 56.4506L48.5613 56.4256L48.5581 56.4149L48.5567 56.4099L48.5561 56.4076C48.5557 56.4064 48.5554 56.4053 49.9996 56L48.5554 56.4053C48.3316 55.6077 48.7967 54.7796 49.5943 54.5558C50.3793 54.3355 51.1937 54.7825 51.4327 55.5569C51.4337 55.5595 51.4351 55.5631 51.4369 55.5677C51.4475 55.594 51.4723 55.6508 51.5165 55.7287C51.6044 55.8837 51.7689 56.1219 52.0543 56.3722C52.5993 56.8501 53.7325 57.5 55.9996 57.5C58.2667 57.5 59.3999 56.8501 59.9449 56.3722C60.2303 56.1219 60.3948 55.8837 60.4827 55.7287C60.5269 55.6508 60.5517 55.594 60.5623 55.5677C60.5642 55.5631 60.5656 55.5595 60.5665 55.5569ZM51.4432 55.5924C51.4432 55.5924 51.4432 55.5925 51.4432 55.5925C51.4432 55.5925 51.4432 55.5925 51.4432 55.5925L51.4432 55.5924Z" fill="#3F3F3F"/>
<g filter="url(#filter0_f_214_1168)">
<path d="M19 55C19 52.2386 21.2386 50 24 50H26C28.7614 50 31 52.2386 31 55C31 57.7614 28.7614 60 26 60H24C21.2386 60 19 57.7614 19 55Z" fill="#FF2E31"/>
</g>
<g filter="url(#filter1_f_214_1168)">
<path d="M79 55C79 52.2386 81.2386 50 84 50H86C88.7614 50 91 52.2386 91 55C91 57.7614 88.7614 60 86 60H84C81.2386 60 79 57.7614 79 55Z" fill="#FF2E31"/>
</g>
<path d="M41 50C41 52.2091 39.2091 50 37 50C34.7909 50 33 51.7091 33 49.5C33 47.2909 33.5 45.5 37 45.5C40 45.5 41 47.7909 41 50Z" fill="#3F3F3F"/>
<path d="M71 50C71 52.2091 72.7909 50 75 50C77.2091 50 79 51.7091 79 49.5C79 47.2909 78.5 45.5 75 45.5C72 45.5 71 47.7909 71 50Z" fill="#3F3F3F"/>
<defs>
<filter id="filter0_f_214_1168" x="12" y="43" width="26" height="24" filterUnits="userSpaceOnUse" color-interpolation-filters="sRGB">
<feFlood flood-opacity="0" result="BackgroundImageFix"/>
<feBlend mode="normal" in="SourceGraphic" in2="BackgroundImageFix" result="shape"/>
<feGaussianBlur stdDeviation="3.5" result="effect1_foregroundBlur_214_1168"/>
</filter>
<filter id="filter1_f_214_1168" x="72" y="43" width="26" height="24" filterUnits="userSpaceOnUse" color-interpolation-filters="sRGB">
<feFlood flood-opacity="0" result="BackgroundImageFix"/>
<feBlend mode="normal" in="SourceGraphic" in2="BackgroundImageFix" result="shape"/>
<feGaussianBlur stdDeviation="3.5" result="effect1_foregroundBlur_214_1168"/>
</filter>
</defs>
</svg>
