<svg width="112" height="112" viewBox="0 0 112 112" fill="none" xmlns="http://www.w3.org/2000/svg">
<path d="M112 56C112 85.8234 86.9279 110 56 110C25.0721 110 0 85.8234 0 56C0 26.1766 25.0721 2 56 2C86.9279 2 112 26.1766 112 56Z" fill="#FF4766"/>
<g filter="url(#filter0_f_214_1179)">
<path d="M18 56C18 52.6863 20.6863 50 24 50H28C31.3137 50 34 52.6863 34 56C34 59.3137 31.3137 62 28 62H24C20.6863 62 18 59.3137 18 56Z" fill="#F1004C"/>
</g>
<g filter="url(#filter1_f_214_1179)">
<path d="M79 56C79 52.6863 81.6863 50 85 50H89C92.3137 50 95 52.6863 95 56C95 59.3137 92.3137 62 89 62H85C81.6863 62 79 59.3137 79 56Z" fill="#F1004C"/>
</g>
<path d="M40.9997 49.5C40 51 39.5 48.5 37 48.5C34.5 48.5 34.1109 50.6114 32.9997 49.5C32.2093 48.7095 33.4997 45.5 36.9997 45.5C39.9997 45.5 41.9994 48 40.9997 49.5Z" fill="#3F3F3F"/>
<path d="M71.2601 49.5C72.2598 51 72.7598 48.5 75.2598 48.5C77.7598 48.5 78.1489 50.6114 79.2601 49.5C80.0505 48.7095 78.7601 45.5 75.2601 45.5C72.2601 45.5 70.2604 48 71.2601 49.5Z" fill="#3F3F3F"/>
<path fill-rule="evenodd" clip-rule="evenodd" d="M60.5208 54.7495C60.5213 54.747 60.5217 54.7445 60.5221 54.7419L60.5222 54.7414C60.5223 54.7408 60.5223 54.7412 60.522 54.7428L60.5214 54.746L60.521 54.7483L60.5208 54.7495ZM51.4774 54.7419L51.4806 54.7581C51.4845 54.7775 51.492 54.8129 51.5039 54.8619C51.5278 54.9605 51.5686 55.1118 51.6319 55.298C51.7602 55.675 51.9722 56.1688 52.3034 56.653C52.9353 57.5764 54.0076 58.5 55.9998 58.5C57.9919 58.5 59.0643 57.5764 59.6961 56.653C60.0274 56.1688 60.2393 55.675 60.3676 55.298C60.431 55.1118 60.4718 54.9605 60.4956 54.8619C60.5075 54.8129 60.515 54.7775 60.519 54.7581L60.5221 54.7419C60.6638 53.93 61.4349 53.3838 62.2488 53.5208C63.0658 53.6584 63.6165 54.4321 63.4789 55.2491L61.9998 55C63.4789 55.2491 63.4788 55.2498 63.4787 55.2506L63.4784 55.2522L63.4778 55.2558L63.4763 55.2644L63.4722 55.2872C63.4689 55.3049 63.4646 55.3273 63.4591 55.3542C63.4482 55.4081 63.4326 55.4801 63.4114 55.5678C63.3691 55.7427 63.3038 55.982 63.2076 56.2645C63.0169 56.825 62.696 57.5812 62.172 58.347C61.0934 59.9236 59.1658 61.5 55.9998 61.5C52.8338 61.5 50.9062 59.9236 49.8275 58.347C49.3036 57.5812 48.9826 56.825 48.7919 56.2645C48.6957 55.982 48.6305 55.7427 48.5881 55.5678C48.5669 55.4801 48.5513 55.4081 48.5404 55.3542C48.5349 55.3273 48.5306 55.3049 48.5274 55.2872L48.5232 55.2644L48.5217 55.2558L48.5211 55.2522L48.5208 55.2506C48.5207 55.2498 48.5206 55.2491 49.9998 55L48.5206 55.2491C48.383 54.4321 48.9338 53.6584 49.7507 53.5208C50.5646 53.3838 51.3357 53.93 51.4774 54.7419Z" fill="#3F3F3F"/>
<defs>
<filter id="filter0_f_214_1179" x="11" y="43" width="30" height="26" filterUnits="userSpaceOnUse" color-interpolation-filters="sRGB">
<feFlood flood-opacity="0" result="BackgroundImageFix"/>
<feBlend mode="normal" in="SourceGraphic" in2="BackgroundImageFix" result="shape"/>
<feGaussianBlur stdDeviation="3.5" result="effect1_foregroundBlur_214_1179"/>
</filter>
<filter id="filter1_f_214_1179" x="72" y="43" width="30" height="26" filterUnits="userSpaceOnUse" color-interpolation-filters="sRGB">
<feFlood flood-opacity="0" result="BackgroundImageFix"/>
<feBlend mode="normal" in="SourceGraphic" in2="BackgroundImageFix" result="shape"/>
<feGaussianBlur stdDeviation="3.5" result="effect1_foregroundBlur_214_1179"/>
</filter>
</defs>
</svg>
