<svg width="24" height="24" viewBox="0 0 24 24" fill="none" xmlns="http://www.w3.org/2000/svg">
<path d="M18.2856 10.5714C18.2856 14.9897 14.7039 18.5714 10.2856 18.5714C5.86737 18.5714 2.28564 14.9897 2.28564 10.5714C2.28564 6.15313 5.86737 2.57141 10.2856 2.57141C14.7039 2.57141 18.2856 6.15313 18.2856 10.5714Z" fill="url(#paint0_linear_433_4519)"/>
<path fill-rule="evenodd" clip-rule="evenodd" d="M22.8572 15C22.8572 18.5504 19.9791 21.4286 16.4287 21.4286C16.3809 21.4286 16.3333 21.428 16.2858 21.427V21.4286H8.85725C6.49031 21.4286 4.57153 19.5098 4.57153 17.1428C4.57153 14.7759 6.49031 12.8571 8.85725 12.8571C9.35794 12.8571 9.83859 12.943 10.2853 13.1008C11.0953 10.4775 13.5394 8.57141 16.4287 8.57141C19.9791 8.57141 22.8572 11.4496 22.8572 15Z" fill="url(#paint1_linear_433_4519)"/>
<defs>
<linearGradient id="paint0_linear_433_4519" x1="4.68565" y1="4.70474" x2="12.4285" y2="12.4476" gradientUnits="userSpaceOnUse">
<stop stop-color="#FFD650"/>
<stop offset="1" stop-color="#FFA75F"/>
</linearGradient>
<linearGradient id="paint1_linear_433_4519" x1="12.9525" y1="8.57141" x2="12.9525" y2="21.4286" gradientUnits="userSpaceOnUse">
<stop stop-color="#D9ECFF"/>
<stop offset="1" stop-color="#ADD6FF"/>
</linearGradient>
</defs>
</svg>
