<svg width="24" height="24" viewBox="0 0 24 24" fill="none" xmlns="http://www.w3.org/2000/svg">
<path fill-rule="evenodd" clip-rule="evenodd" d="M0.857666 10.773C0.857666 12.945 2.6184 14.7057 4.79039 14.7057H17.8995C20.7954 14.7057 23.1431 12.3581 23.1431 9.46211C23.1431 6.56614 20.7954 4.21849 17.8995 4.21849C17.6121 4.21849 17.3302 4.2416 17.0554 4.28606C16.0597 1.93509 13.731 0.285767 11.0172 0.285767C7.39722 0.285767 4.46266 3.22033 4.46266 6.8403L4.46267 6.85376C2.44402 7.02029 0.857666 8.7114 0.857666 10.773Z" fill="url(#paint0_linear_433_4534)"/>
<path fill-rule="evenodd" clip-rule="evenodd" d="M7.62173 16.3115C7.19955 16.1486 6.72529 16.3588 6.56244 16.781L5.50092 19.5329C5.33807 19.9551 5.5483 20.4294 5.97047 20.5922C6.39265 20.7551 6.8669 20.5448 7.02976 20.1227L8.09128 17.3708C8.25413 16.9486 8.0439 16.4743 7.62173 16.3115ZM14.4841 16.3115C14.062 16.1486 13.5877 16.3588 13.4249 16.781L11.6557 21.3675C11.4928 21.7897 11.703 22.264 12.1252 22.4268C12.5474 22.5897 13.0216 22.3794 13.1845 21.9573L14.9537 17.3708C15.1165 16.9486 14.9063 16.4743 14.4841 16.3115ZM9.99397 16.781C10.1568 16.3588 10.6311 16.1486 11.0533 16.3115C11.4754 16.4743 11.6857 16.9486 11.5228 17.3708L9.28182 23.1803C9.11897 23.6025 8.64471 23.8127 8.22253 23.6499C7.80036 23.487 7.59013 23.0128 7.75298 22.5906L9.99397 16.781ZM17.9157 16.3115C17.4935 16.1486 17.0192 16.3588 16.8564 16.781L16.0308 18.9214C15.8679 19.3436 16.0781 19.8178 16.5003 19.9807C16.9225 20.1435 17.3967 19.9333 17.5596 19.5111L18.3852 17.3708C18.5481 16.9486 18.3378 16.4743 17.9157 16.3115Z" fill="#ADD6FF"/>
<defs>
<linearGradient id="paint0_linear_433_4534" x1="11.0718" y1="0.285767" x2="11.0718" y2="14.7057" gradientUnits="userSpaceOnUse">
<stop stop-color="#D9ECFF"/>
<stop offset="1" stop-color="#ADD6FF"/>
</linearGradient>
</defs>
</svg>
