<svg width="24" height="24" viewBox="0 0 24 24" fill="none" xmlns="http://www.w3.org/2000/svg">
<path fill-rule="evenodd" clip-rule="evenodd" d="M5.19051 16.9496C5.13915 16.9515 5.08756 16.9524 5.03575 16.9524C2.72799 16.9524 0.857178 15.0816 0.857178 12.7738C0.857178 10.8266 2.18906 9.19053 3.99151 8.72681C3.96567 8.48015 3.95242 8.22973 3.95242 7.97622C3.95242 4.04448 7.13972 0.857178 11.0715 0.857178C14.019 0.857178 16.5481 2.64847 17.6296 5.20182C20.7063 5.39162 23.1429 7.947 23.1429 11.0715C23.1429 14.3194 20.5099 16.9524 17.2619 16.9524H5.19051V16.9496Z" fill="url(#paint0_linear_433_4541)"/>
<path d="M14.6643 10.762H10.4724C10.3344 10.762 10.213 10.8534 10.1749 10.9861L8.08911 18.2527C8.03233 18.4505 8.18082 18.6477 8.38662 18.6477H10.356C10.5535 18.6477 10.7005 18.8302 10.6584 19.0232L9.86969 22.6335C9.79821 22.9607 10.225 23.1525 10.4223 22.8818L15.9746 15.2602C16.1237 15.0556 15.9775 14.7684 15.7245 14.7684H14.1116C13.8976 14.7684 13.7481 14.5563 13.8202 14.3548L14.9558 11.1756C15.0278 10.974 14.8784 10.762 14.6643 10.762Z" fill="url(#paint1_linear_433_4541)"/>
<path d="M2.86092 19.222C3.01472 18.8232 3.46264 18.6247 3.86136 18.7785C4.26009 18.9323 4.45864 19.3802 4.30483 19.7789L3.52506 21.8004C3.37126 22.1991 2.92334 22.3977 2.52462 22.2439C2.12589 22.0901 1.92734 21.6422 2.08115 21.2434L2.86092 19.222Z" fill="#ADD6FF"/>
<path d="M5.95589 19.222C6.10969 18.8232 6.55761 18.6247 6.95633 18.7785C7.35506 18.9323 7.55361 19.3802 7.3998 19.7789L6.62003 21.8004C6.46623 22.1991 6.01831 22.3977 5.61959 22.2439C5.22086 22.0901 5.02231 21.6422 5.17612 21.2434L5.95589 19.222Z" fill="#ADD6FF"/>
<path d="M15.5513 19.222C15.7052 18.8232 16.1531 18.6247 16.5518 18.7785C16.9505 18.9323 17.1491 19.3802 16.9953 19.7789L16.2155 21.8004C16.0617 22.1991 15.6138 22.3977 15.215 22.2439C14.8163 22.0901 14.6178 21.6422 14.7716 21.2434L15.5513 19.222Z" fill="#ADD6FF"/>
<path d="M18.6468 19.222C18.8006 18.8232 19.2485 18.6247 19.6473 18.7785C20.046 18.9323 20.2445 19.3802 20.0907 19.7789L19.311 21.8004C19.1571 22.1991 18.7092 22.3977 18.3105 22.2439C17.9118 22.0901 17.7132 21.6422 17.867 21.2434L18.6468 19.222Z" fill="#ADD6FF"/>
<defs>
<linearGradient id="paint0_linear_433_4541" x1="11.0715" y1="0.857178" x2="11.0715" y2="16.9524" gradientUnits="userSpaceOnUse">
<stop stop-color="#D9ECFF"/>
<stop offset="1" stop-color="#ADD6FF"/>
</linearGradient>
<linearGradient id="paint1_linear_433_4541" x1="10.2856" y1="10.8572" x2="10.2856" y2="23.143" gradientUnits="userSpaceOnUse">
<stop stop-color="#FFD650"/>
<stop offset="1" stop-color="#FFA75F"/>
</linearGradient>
</defs>
</svg>
