<svg width="24" height="24" viewBox="0 0 24 24" fill="none" xmlns="http://www.w3.org/2000/svg">
<path fill-rule="evenodd" clip-rule="evenodd" d="M0.856934 11.0173C0.856934 13.1894 2.61778 14.9503 4.78989 14.9503H17.8998C20.7959 14.9503 23.1437 12.6025 23.1437 9.70634C23.1437 6.81019 20.7959 4.46239 17.8998 4.46239C17.5642 4.46239 17.2359 4.49392 16.9178 4.55417C15.856 2.36586 13.6127 0.857178 11.0171 0.857178C7.50246 0.857178 4.63389 3.62326 4.46958 7.09722C2.44728 7.26022 0.856934 8.95305 0.856934 11.0173Z" fill="url(#paint0_linear_433_4554)"/>
<path fill-rule="evenodd" clip-rule="evenodd" d="M6.65089 16.4327C6.73519 16.2041 7.05861 16.2041 7.14291 16.4327L7.30076 16.8609C7.3445 16.9795 7.46664 17.05 7.59123 17.0286L8.04096 16.9512C8.28114 16.9099 8.44285 17.19 8.28697 17.3773L7.9951 17.7281C7.91424 17.8253 7.91424 17.9663 7.9951 18.0635L8.28697 18.4143C8.44285 18.6016 8.28114 18.8817 8.04096 18.8404L7.59123 18.763C7.46664 18.7416 7.3445 18.8121 7.30076 18.9307L7.14291 19.3589C7.05861 19.5875 6.73519 19.5875 6.65089 19.3589L6.49304 18.9307C6.44931 18.8121 6.32716 18.7416 6.20257 18.763L5.75284 18.8404C5.51266 18.8817 5.35096 18.6016 5.50683 18.4143L5.7987 18.0635C5.87956 17.9663 5.87956 17.8253 5.7987 17.7281L5.50683 17.3773C5.35096 17.19 5.51266 16.9099 5.75284 16.9512L6.20257 17.0286C6.32716 17.05 6.44931 16.9795 6.49304 16.8609L6.65089 16.4327ZM11.5671 16.4327C11.6514 16.2041 11.9748 16.2041 12.0591 16.4327L12.217 16.8609C12.2607 16.9795 12.3828 17.05 12.5074 17.0286L12.9572 16.9512C13.1973 16.9099 13.359 17.19 13.2032 17.3773L12.9113 17.7281C12.8304 17.8253 12.8304 17.9663 12.9113 18.0635L13.2032 18.4143C13.359 18.6016 13.1973 18.8817 12.9572 18.8404L12.5074 18.763C12.3828 18.7416 12.2607 18.8121 12.217 18.9307L12.0591 19.3589C11.9748 19.5875 11.6514 19.5875 11.5671 19.3589L11.4092 18.9307C11.3655 18.8121 11.2434 18.7416 11.1188 18.763L10.669 18.8404C10.4289 18.8817 10.2672 18.6016 10.423 18.4143L10.7149 18.0635C10.7958 17.9663 10.7958 17.8253 10.7149 17.7281L10.423 17.3773C10.2672 17.19 10.4289 16.9099 10.669 16.9512L11.1188 17.0286C11.2434 17.05 11.3655 16.9795 11.4092 16.8609L11.5671 16.4327ZM17.3031 16.4327C17.2188 16.2041 16.8953 16.2041 16.811 16.4327L16.6532 16.8609C16.6095 16.9795 16.4873 17.05 16.3627 17.0286L15.913 16.9512C15.6728 16.9099 15.5111 17.19 15.667 17.3773L15.9589 17.7281C16.0397 17.8253 16.0397 17.9663 15.9589 18.0635L15.667 18.4143C15.5111 18.6016 15.6728 18.8817 15.913 18.8404L16.3627 18.763C16.4873 18.7416 16.6095 18.8121 16.6532 18.9307L16.811 19.3589C16.8953 19.5875 17.2188 19.5875 17.3031 19.3589L17.4609 18.9307C17.5046 18.8121 17.6268 18.7416 17.7514 18.763L18.2011 18.8404C18.4413 18.8817 18.603 18.6016 18.4471 18.4143L18.1552 18.0635C18.0744 17.9663 18.0744 17.8253 18.1552 17.7281L18.4471 17.3773C18.603 17.19 18.4413 16.9099 18.2011 16.9512L17.7514 17.0286C17.6268 17.05 17.5046 16.9795 17.4609 16.8609L17.3031 16.4327ZM9.27286 20.0379C9.35717 19.8093 9.68058 19.8093 9.76489 20.0379L9.92274 20.4661C9.96647 20.5847 10.0886 20.6552 10.2132 20.6338L10.6629 20.5564C10.9031 20.5151 11.0648 20.7952 10.9089 20.9825L10.6171 21.3333C10.5362 21.4305 10.5362 21.5715 10.6171 21.6687L10.9089 22.0195C11.0648 22.2068 10.9031 22.4869 10.6629 22.4456L10.2132 22.3682C10.0886 22.3468 9.96647 22.4173 9.92274 22.5359L9.76489 22.9641C9.68058 23.1928 9.35717 23.1928 9.27286 22.9641L9.11501 22.5359C9.07128 22.4173 8.94913 22.3468 8.82454 22.3682L8.37482 22.4456C8.13464 22.4869 7.97293 22.2068 8.12881 22.0195L8.42068 21.6687C8.50154 21.5715 8.50154 21.4305 8.42068 21.3333L8.12881 20.9825C7.97293 20.7952 8.13464 20.5151 8.37482 20.5564L8.82454 20.6338C8.94913 20.6552 9.07128 20.5847 9.11501 20.4661L9.27286 20.0379ZM14.6811 20.0379C14.5968 19.8093 14.2734 19.8093 14.1891 20.0379L14.0312 20.4661C13.9875 20.5847 13.8653 20.6552 13.7407 20.6338L13.291 20.5564C13.0508 20.5151 12.8891 20.7952 13.045 20.9825L13.3369 21.3333C13.4177 21.4305 13.4177 21.5715 13.3369 21.6687L13.045 22.0195C12.8891 22.2068 13.0508 22.4869 13.291 22.4456L13.7407 22.3682C13.8653 22.3468 13.9875 22.4173 14.0312 22.5359L14.1891 22.9641C14.2734 23.1928 14.5968 23.1928 14.6811 22.9641L14.8389 22.5359C14.8827 22.4173 15.0048 22.3468 15.1294 22.3682L15.5791 22.4456C15.8193 22.4869 15.981 22.2068 15.8251 22.0195L15.5333 21.6687C15.4524 21.5715 15.4524 21.4305 15.5333 21.3333L15.8251 20.9825C15.981 20.7952 15.8193 20.5151 15.5791 20.5564L15.1294 20.6338C15.0048 20.6552 14.8827 20.5847 14.8389 20.4661L14.6811 20.0379Z" fill="#ADD6FF"/>
<defs>
<linearGradient id="paint0_linear_433_4554" x1="11.0717" y1="0.857178" x2="11.0717" y2="14.9503" gradientUnits="userSpaceOnUse">
<stop stop-color="#D9ECFF"/>
<stop offset="1" stop-color="#ADD6FF"/>
</linearGradient>
</defs>
</svg>
