<svg width="24" height="24" viewBox="0 0 24 24" fill="none" xmlns="http://www.w3.org/2000/svg">
<g clip-path="url(#clip0_765_1042)">
<path fill-rule="evenodd" clip-rule="evenodd" d="M12 11C14.7614 11 17 8.76142 17 6C17 3.23858 14.7614 1 12 1C9.23857 1 6.99999 3.23858 6.99999 6C6.99999 8.76142 9.23857 11 12 11ZM2.19744 21.0128C3.11904 16.4419 7.15756 13 12 13C16.8424 13 20.8809 16.4419 21.8025 21.0128C22.0209 22.0956 21.1046 23 20 23H3.99999C2.89542 23 1.97913 22.0955 2.19744 21.0128Z" fill="#FF786B"/>
<path d="M13.3988 20.3836C13.4371 20.1723 13.5389 19.9778 13.6907 19.826L20.7078 12.8089C21.1197 12.397 21.7875 12.397 22.1994 12.8089L23.6911 14.3006C24.103 14.7125 24.103 15.3803 23.6911 15.7922L16.674 22.8093C16.5222 22.9611 16.3277 23.0629 16.1164 23.1012L13.9948 23.4861C13.415 23.5912 12.9088 23.085 13.0139 22.5052L13.3988 20.3836Z" fill="#FFD57A"/>
</g>
<defs>
<clipPath id="clip0_765_1042">
<rect width="24" height="24" fill="white"/>
</clipPath>
</defs>
</svg>
