<svg width="24" height="24" viewBox="0 0 24 24" fill="none" xmlns="http://www.w3.org/2000/svg">
<g clip-path="url(#clip0_765_2636)">
<path fill-rule="evenodd" clip-rule="evenodd" d="M18 6C18 5.29873 17.8797 4.62556 17.6586 4C16.8349 1.66962 14.6124 0 12 0C9.38756 0 7.16508 1.66962 6.34141 4C6.12031 4.62556 6 5.29873 6 6C6 6.55228 6.44772 7 7 7H8C8.55228 7 9 6.55228 9 6C9 5.23165 9.28885 4.53076 9.76389 4C10.3132 3.38625 11.1115 3 12 3C12.8885 3 13.6868 3.38625 14.2361 4C14.7111 4.53076 15 5.23165 15 6V7V10H5C3.34315 10 2 11.3431 2 13V21C2 22.6569 3.34315 24 5 24H19C20.6569 24 22 22.6569 22 21V13C22 11.3431 20.6569 10 19 10H18V7V6Z" fill="#B8DAFB"/>
<path fill-rule="evenodd" clip-rule="evenodd" d="M13 17.7324C13.5978 17.3866 14 16.7403 14 16C14 14.8954 13.1046 14 12 14C10.8954 14 10 14.8954 10 16C10 16.7403 10.4022 17.3866 11 17.7324V20C11 20.5523 11.4477 21 12 21C12.5523 21 13 20.5523 13 20V17.7324Z" fill="#879BFF"/>
</g>
<defs>
<clipPath id="clip0_765_2636">
<rect width="24" height="24" fill="white"/>
</clipPath>
</defs>
</svg>
