<svg width="90" height="90" viewBox="0 0 90 90" fill="none" xmlns="http://www.w3.org/2000/svg">
<path fill-rule="evenodd" clip-rule="evenodd" d="M45 0C51.9373 0 57.6961 5.0458 58.8066 11.6676C64.2741 7.7706 71.914 8.27479 76.8194 13.1802C81.7249 18.0857 82.229 25.7258 78.3318 31.1933C84.9539 32.3035 90 38.0625 90 45C90 51.9376 84.9538 57.6965 78.3317 58.8067C82.2292 64.2743 81.7251 71.9146 76.8196 76.8202C71.9141 81.7256 64.2741 82.2297 58.8066 78.3326C57.696 84.9543 51.9372 90 45 90C38.0627 90 32.3038 84.9542 31.1934 78.3323C25.7259 82.2293 18.086 81.7251 13.1806 76.8197C8.27513 71.9143 7.77099 64.2742 11.6682 58.8067C5.04609 57.6964 0 51.9375 0 45C0 38.0626 5.04598 32.3037 11.6679 31.1934C7.77118 25.7259 8.27545 18.0861 13.1807 13.1808C18.0861 8.27552 25.7258 7.77127 31.1933 11.6681C32.3036 5.04605 38.0625 0 45 0Z" fill="#FF9595"/>
</svg>
