<svg width="90" height="90" viewBox="0 0 90 90" fill="none" xmlns="http://www.w3.org/2000/svg">
<path d="M64.1224 25.8776C64.6929 24.0192 65 22.0454 65 20C65 8.9543 56.0457 0 45 0C33.9543 0 25 8.9543 25 20C25 22.0454 25.3071 24.0192 25.8776 25.8776C24.0192 25.3071 22.0454 25 20 25C8.9543 25 0 33.9543 0 45C0 56.0457 8.9543 65 20 65C22.0454 65 24.0192 64.6929 25.8776 64.1224C25.3071 65.9808 25 67.9546 25 70C25 81.0457 33.9543 90 45 90C56.0457 90 65 81.0457 65 70C65 67.9546 64.6929 65.9808 64.1224 64.1224C65.9808 64.6929 67.9546 65 70 65C81.0457 65 90 56.0457 90 45C90 33.9543 81.0457 25 70 25C67.9546 25 65.9808 25.3071 64.1224 25.8776Z" fill="#FF9595"/>
</svg>
