<svg width="90" height="90" viewBox="0 0 90 90" fill="none" xmlns="http://www.w3.org/2000/svg">
<path fill-rule="evenodd" clip-rule="evenodd" d="M9.53019 9.52642C0.823963 18.2285 0.823962 32.3373 9.53019 41.0394C11.1536 42.662 12.965 43.982 14.8944 44.9995C12.9645 46.0171 11.1527 47.3373 9.52894 48.9603C0.82271 57.6623 0.82271 71.7712 9.52894 80.4732C18.2352 89.1753 32.3508 89.1753 41.057 80.4732C42.6695 78.8615 43.9834 77.0642 44.9986 75.1502C46.0138 77.0643 47.3277 78.8616 48.9403 80.4735C57.6466 89.1755 71.7622 89.1755 80.4684 80.4735C89.1746 71.7714 89.1746 57.6626 80.4684 48.9605C78.8565 47.3494 77.0592 46.0366 75.1451 45.022C77.0602 44.0073 78.8584 42.694 80.471 41.0821C89.1773 32.3801 89.1773 18.2712 80.471 9.56917C71.7648 0.867109 57.6492 0.867109 48.943 9.56917C47.3361 11.1754 46.0257 12.9657 45.012 14.8723C43.9951 12.9498 42.6772 11.1446 41.0582 9.52643C32.352 0.824363 18.2364 0.824361 9.53019 9.52642Z" fill="#FF9595"/>
</svg>
