<svg width="90" height="90" viewBox="0 0 90 90" fill="none" xmlns="http://www.w3.org/2000/svg">
<path d="M24.2919 6C19.4875 5.99972 14.7909 7.42418 10.7961 10.0932C6.8013 12.7623 3.6877 16.5561 1.8491 20.9947C0.0104876 25.4334 -0.470548 30.3177 0.466823 35.0297C1.40419 39.7418 3.71787 44.0701 7.11524 47.4672L43.0094 83.3613C43.2889 83.6416 43.621 83.8639 43.9866 84.0156C44.3521 84.1673 44.7441 84.2454 45.1399 84.2454C45.5357 84.2454 45.9276 84.1673 46.2932 84.0156C46.6588 83.8639 46.9909 83.6416 47.2704 83.3613L83.1645 47.4612C87.5967 42.8813 90.0514 36.743 89.9992 30.3699C89.947 23.9968 87.3921 17.8995 82.8855 13.3929C78.3789 8.88627 72.2816 6.33139 65.9084 6.27918C59.5353 6.22698 53.397 8.68163 48.8172 13.1138L45.1399 16.7851L41.4686 13.1138C36.91 8.55932 30.7359 6.00067 24.2919 6Z" fill="#FF9595"/>
</svg>
