<svg width="90" height="90" viewBox="0 0 90 90" fill="none" xmlns="http://www.w3.org/2000/svg">
<path d="M45 0L52.8105 10.78L64.5248 4.4564L66.8845 17.5577L80.1824 16.943L76.624 29.7707L88.8718 34.9866L80.1 45L88.8718 55.0134L76.624 60.2293L80.1824 73.057L66.8845 72.4423L64.5248 85.5436L52.8105 79.22L45 90L37.1895 79.22L25.4752 85.5436L23.1155 72.4423L9.81758 73.057L13.376 60.2293L1.12824 55.0134L9.9 45L1.12824 34.9866L13.376 29.7707L9.81758 16.943L23.1155 17.5577L25.4752 4.4564L37.1895 10.78L45 0Z" fill="#A5ACFF"/>
</svg>
