<svg width="24" height="24" viewBox="0 0 24 24" fill="none" xmlns="http://www.w3.org/2000/svg">
<path d="M10.7525 2.24418C10.6092 2.10303 10.4193 2.01721 10.2172 2.00232C10.0151 1.98744 9.81429 2.04447 9.65128 2.16306L9.5565 2.24418L0.247929 11.4122C0.104612 11.5533 0.0174742 11.7404 0.00235939 11.9395C-0.0127563 12.1385 0.0451546 12.3363 0.165562 12.4968L0.247929 12.5902L9.5565 21.7582C9.7077 21.9059 9.9099 21.9921 10.1228 21.9995C10.3356 22.0069 10.5435 21.9349 10.7048 21.798C10.8662 21.6611 10.9692 21.4693 10.9933 21.2609C11.0174 21.0524 10.9609 20.8427 10.8349 20.6736L10.7525 20.5802L2.04195 12.0012L10.7525 3.42214C10.911 3.26586 11 3.05403 11 2.83316C11 2.61229 10.911 2.40046 10.7525 2.24418Z" fill="#333333"/>
</svg>
