<svg width="24" height="24" viewBox="0 0 24 24" fill="none" xmlns="http://www.w3.org/2000/svg">
<path fill-rule="evenodd" clip-rule="evenodd" d="M9.1387 1.49074C9.37002 0.61225 10.1643 0 11.0728 0H12.9267C13.8351 0 14.6295 0.612249 14.8608 1.49074L15.3621 3.39446C15.4406 3.69264 15.6538 3.93488 15.9304 4.0711C16.2498 4.22841 16.559 4.40376 16.8567 4.59584C17.1104 4.75952 17.4202 4.81869 17.7114 4.73927L19.5521 4.23739C20.4227 4 21.3396 4.3815 21.7877 5.16765L22.7368 6.83239C23.1849 7.61854 23.0527 8.61344 22.4144 9.25837L21.3518 10.3319C21.1195 10.5666 21.0217 10.9005 21.0662 11.2277C21.1238 11.6507 21.1536 12.0827 21.1536 12.5218C21.1536 12.6683 21.1503 12.8141 21.1437 12.9589C21.1303 13.2548 21.2316 13.5466 21.4399 13.7571L22.4144 14.7416C23.0527 15.3866 23.1849 16.3815 22.7368 17.1676L21.7877 18.8323C21.3396 19.6185 20.4227 20 19.5521 19.7626L18.7419 19.5417C18.4057 19.45 18.0486 19.5432 17.7812 19.7667C17.1381 20.3046 16.4221 20.7564 15.6505 21.1045C15.3578 21.2366 15.1303 21.4857 15.0485 21.7962L14.8608 22.5093C14.6295 23.3878 13.8351 24 12.9267 24H11.0728C10.1643 24 9.37002 23.3878 9.1387 22.5093L8.98151 21.9123C8.89697 21.5912 8.65705 21.3366 8.35063 21.2087C7.50861 20.8574 6.72887 20.3842 6.03284 19.8108C5.76604 19.591 5.41175 19.5001 5.07824 19.591L4.44872 19.7626C3.57807 20 2.6612 19.6185 2.21303 18.8324L1.264 17.1677C0.815832 16.3815 0.948033 15.3866 1.58636 14.7417L2.33435 13.986C2.54835 13.7697 2.64911 13.4681 2.62886 13.1645C2.61468 12.9521 2.60748 12.7378 2.60748 12.5218C2.60748 12.0172 2.64678 11.5218 2.72245 11.0388C2.77475 10.7049 2.6782 10.3614 2.44047 10.1213L1.58636 9.25833C0.948033 8.6134 0.815832 7.6185 1.264 6.83235L2.21303 5.16761C2.6612 4.38146 3.57807 3.99996 4.44872 4.23736L6.12108 4.69335C6.40938 4.77196 6.71603 4.7148 6.96844 4.55485C7.32163 4.33102 7.69077 4.13062 8.07375 3.95578C8.36434 3.82312 8.58992 3.57493 8.67126 3.26601L9.1387 1.49074Z" fill="#555555"/>
<path d="M16.4 12.2C16.4 14.5196 14.5196 16.4 12.2 16.4C9.8804 16.4 8 14.5196 8 12.2C8 9.8804 9.8804 8 12.2 8C14.5196 8 16.4 9.8804 16.4 12.2Z" fill="#888888"/>
</svg>
