<svg width="24" height="24" viewBox="0 0 24 24" fill="none" xmlns="http://www.w3.org/2000/svg">
<path d="M0 12C0 7.79961 0 5.69941 0.817451 4.09507C1.5365 2.68386 2.68386 1.5365 4.09507 0.817451C5.69941 0 7.79961 0 12 0C16.2004 0 18.3006 0 19.9049 0.817451C21.3161 1.5365 22.4635 2.68386 23.1825 4.09507C24 5.69941 24 7.79961 24 12C24 16.2004 24 18.3006 23.1825 19.9049C22.4635 21.3161 21.3161 22.4635 19.9049 23.1825C18.3006 24 16.2004 24 12 24C7.79961 24 5.69941 24 4.09507 23.1825C2.68386 22.4635 1.5365 21.3161 0.817451 19.9049C0 18.3006 0 16.2004 0 12Z" fill="white"/>
<path fill-rule="evenodd" clip-rule="evenodd" d="M10 6.3C10 5.58203 10.582 5 11.3 5H12.7C13.418 5 14 5.58203 14 6.3V17.7C14 18.418 13.418 19 12.7 19H11.3C10.582 19 10 18.418 10 17.7V6.3ZM4 13.3C4 12.582 4.58203 12 5.3 12H6.7C7.41797 12 8 12.582 8 13.3V17.7C8 18.418 7.41797 19 6.7 19H5.3C4.58203 19 4 18.418 4 17.7V13.3ZM20 9.3C20 8.58203 19.418 8 18.7 8H17.3C16.582 8 16 8.58203 16 9.3V17.7C16 18.418 16.582 19 17.3 19H18.7C19.418 19 20 18.418 20 17.7V9.3Z" fill="#999999"/>
</svg>
