<svg width="24" height="24" viewBox="0 0 24 24" fill="none" xmlns="http://www.w3.org/2000/svg">
<path fill-rule="evenodd" clip-rule="evenodd" d="M21 3C21 1.34315 19.6569 0 18 0H8.24264C7.44699 0 6.68393 0.316071 6.12132 0.87868L1.87868 5.12132C1.31607 5.68393 1 6.44699 1 7.24264V20C1 21.6569 2.34315 23 4 23H18C19.6569 23 21 21.6569 21 20V3Z" fill="#E2DDC9"/>
<path d="M9.977 14.066C10.0315 13.7655 10.1764 13.4889 10.3923 13.273L18.9494 4.71583C19.5352 4.13004 20.485 4.13004 21.0708 4.71583L23.1921 6.83715C23.7779 7.42294 23.7779 8.37268 23.1921 8.95847L14.6349 17.5156C14.419 17.7315 14.1424 17.8764 13.8419 17.9309L10.8246 18.4782C10.0002 18.6277 9.28018 17.9077 9.42972 17.0833L9.977 14.066Z" fill="#B2AE9A"/>
<path d="M7.49992 3.90002V0.324283C7.49992 0.0570116 7.17678 -0.0768384 6.98779 0.112151L1.51205 5.58789C1.32306 5.77688 1.45691 6.10002 1.72419 6.10002H5.29992C6.51495 6.10002 7.49992 5.11505 7.49992 3.90002Z" fill="#B2AE9A"/>
</svg>
